# xmcd CD database file
#
# Track frame offsets:
#	150
#	12845
#	22742
#	35072
#	44595
#	54450
#	65477
#	74720
#	91580
#	103242
#	113987
#	124790
#	138355
#	147367
#	157587
#	170422
#
# Disc length: 2432 seconds
#
# Revision: 3
# Processed by: cddbd v1.5.2PL0 Copyright (c) Steve Scherf et al.
# Submitted via: CDex 1.78
#
DISCID=da097e10
DTITLE=Patsy Cline - Dreaming
DYEAR=1900
DGENRE=Country
TTITLE0=I Fall To Pieces
TTITLE1=Heartaches
TTITLE2=Crazy
TTITLE3=Tra Le La Le La Triangle
TTITLE4=Have You Ever Been Lonely
TTITLE5=There He Goes
TTITLE6=Back In Baby's Arms
TTITLE7=Faded Love
TTITLE8=Sweet Dreams
TTITLE9=Your Cheatin' Heart
TTITLE10=San Antonio Rose
TTITLE11=She's Got You
TTITLE12=Walking After Midnight
TTITLE13=Three Cigarettes In An Ashtray
TTITLE14=When You Need A Laugh
TTITLE15=Always
EXTD=
EXTT0=
EXTT1=
EXTT2=
EXTT3=
EXTT4=
EXTT5=
EXTT6=
EXTT7=
EXTT8=
EXTT9=
EXTT10=
EXTT11=
EXTT12=
EXTT13=
EXTT14=
EXTT15=
PLAYORDER=
